<svg width="360" height="200" viewBox="0 0 360 200" fill="none" xmlns="http://www.w3.org/2000/svg">
<g clip-path="url(#clip0_112_13)">
<path d="M-212 -153.589L36.3944 -297L175.635 -55.8289L-72.7598 87.5817L-212 -153.589Z" fill="#DED5B8" fill-opacity="0.5"/>
<path d="M-194 -141L54.3944 -284.411L193.635 -43.2394L-54.7598 100.171L-194 -141Z" fill="#DED5B8" fill-opacity="0.5"/>
<path d="M-176 -129L72.3944 -272.411L211.635 -31.2394L-36.7598 112.171L-176 -129Z" fill="#DED5B8" fill-opacity="0.5"/>
<path d="M138 -141.589L386.394 -285L525.635 -43.8289L277.24 99.5817L138 -141.589Z" fill="#DED5B8" fill-opacity="0.5"/>
<path d="M156 -129L404.394 -272.411L543.635 -31.2394L295.24 112.171L156 -129Z" fill="#DED5B8" fill-opacity="0.5"/>
<path d="M174 -117L422.394 -260.411L561.635 -19.2394L313.24 124.171L174 -117Z" fill="#DED5B8" fill-opacity="0.5"/>
</g>
<defs>
<clipPath id="clip0_112_13">
<rect width="360" height="200" fill="white"/>
</clipPath>
</defs>
</svg>
