<svg width="22" height="22" viewBox="0 0 22 22" fill="none" xmlns="http://www.w3.org/2000/svg">
<path d="M22.0063 11.0856C22.0063 5.11353 17.1649 0.272156 11.1928 0.272156C5.22077 0.272156 0.379395 5.11345 0.379395 11.0856C0.379395 16.4828 4.33373 20.9565 9.50323 21.7677V14.2113H6.75763V11.0856H9.50323V8.70325C9.50323 5.99314 11.1176 4.49615 13.5876 4.49615C14.7707 4.49615 16.0082 4.70735 16.0082 4.70735V7.36847H14.6447C13.3013 7.36847 12.8824 8.20203 12.8824 9.05723V11.0856H15.8815L15.402 14.2113H12.8824V21.7677C18.0519 20.9565 22.0063 16.4829 22.0063 11.0856Z" fill="#1877F2"/>
<path d="M15.402 14.2113L15.8814 11.0856H12.8824V9.05723C12.8824 8.20195 13.3013 7.36847 14.6446 7.36847H16.0081V4.70735C16.0081 4.70735 14.7707 4.49615 13.5875 4.49615C11.1176 4.49615 9.50317 5.99314 9.50317 8.70326V11.0856H6.75757V14.2113H9.50317V21.7677C10.0621 21.8553 10.627 21.8992 11.1928 21.899C11.7585 21.8992 12.3234 21.8553 12.8824 21.7677V14.2113H15.402Z" fill="white"/>
</svg>
