<svg width="22" height="22" viewBox="0 0 22 22" fill="none" xmlns="http://www.w3.org/2000/svg">
<mask id="mask0_86_1412" style="mask-type:alpha" maskUnits="userSpaceOnUse" x="0" y="0" width="22" height="22">
<circle cx="10.8134" cy="10.8134" r="10.8134" fill="#D9D9D9"/>
</mask>
    <defs>
        <radialGradient id="paint0_radial_86_1412" cx="0" cy="0" r="1" gradientUnits="userSpaceOnUse" gradientTransform="translate(5.74464 23.2926) rotate(-90) scale(21.4338 19.9352)">
            <stop stop-color="#FFDD55"/>
            <stop offset="0.1" stop-color="#FFDD55"/>
            <stop offset="0.5" stop-color="#FF543E"/>
            <stop offset="1" stop-color="#C837AB"/>
        </radialGradient>
        <radialGradient id="paint1_radial_86_1412" cx="0" cy="0" r="1" gradientUnits="userSpaceOnUse" gradientTransform="translate(-3.62258 1.55789) rotate(78.681) scale(9.58104 39.4934)">
            <stop stop-color="#3771C8"/>
            <stop offset="0.128" stop-color="#3771C8"/>
            <stop offset="1" stop-color="#6600FF" stop-opacity="0"/>
        </radialGradient>
    </defs>
    <g mask="url(#mask0_86_1412)">
<path d="M16.5581 0H5.0688C2.26938 0 0 2.26938 0 5.0688V16.5581C0 19.3575 2.26938 21.6269 5.0688 21.6269H16.5581C19.3575 21.6269 21.6269 19.3575 21.6269 16.5581V5.0688C21.6269 2.26938 19.3575 0 16.5581 0Z" fill="url(#paint0_radial_86_1412)"/>
<path d="M16.5581 0H5.0688C2.26938 0 0 2.26938 0 5.0688V16.5581C0 19.3575 2.26938 21.6269 5.0688 21.6269H16.5581C19.3575 21.6269 21.6269 19.3575 21.6269 16.5581V5.0688C21.6269 2.26938 19.3575 0 16.5581 0Z" fill="url(#paint1_radial_86_1412)"/>
<path d="M10.8142 3.3559C8.78885 3.3559 8.53462 3.36477 7.7392 3.40094C6.94527 3.43733 6.40333 3.56299 5.92918 3.74742C5.43862 3.93788 5.02257 4.19271 4.60808 4.60735C4.19322 5.02191 3.93839 5.43797 3.74733 5.9283C3.56238 6.4026 3.43657 6.94476 3.40085 7.73832C3.36528 8.53382 3.35596 8.78812 3.35596 10.8135C3.35596 12.8389 3.36491 13.0923 3.401 13.8877C3.43754 14.6817 3.5632 15.2236 3.74748 15.6978C3.93809 16.1883 4.19292 16.6044 4.60756 17.0189C5.02197 17.4337 5.43803 17.6891 5.92821 17.8796C6.40273 18.064 6.94475 18.1897 7.73853 18.2261C8.53403 18.2623 8.78803 18.2711 10.8133 18.2711C12.8388 18.2711 13.0922 18.2623 13.8876 18.2261C14.6816 18.1897 15.2241 18.064 15.6986 17.8796C16.189 17.6891 16.6044 17.4337 17.0188 17.0189C17.4336 16.6044 17.6884 16.1883 17.8795 15.698C18.0628 15.2236 18.1887 14.6815 18.226 13.8879C18.2617 13.0925 18.271 12.8389 18.271 10.8135C18.271 8.78812 18.2617 8.53396 18.226 7.73847C18.1887 6.94454 18.0628 6.40267 17.8795 5.92852C17.6884 5.43797 17.4336 5.02191 17.0188 4.60735C16.604 4.19256 16.1891 3.93773 15.6982 3.74749C15.2228 3.56299 14.6805 3.43726 13.8866 3.40094C13.0911 3.36477 12.8378 3.3559 10.8119 3.3559H10.8142ZM10.1452 4.69982C10.3437 4.69952 10.5653 4.69982 10.8142 4.69982C12.8054 4.69982 13.0414 4.70698 13.8277 4.7427C14.5548 4.77596 14.9494 4.89744 15.2123 4.99954C15.5604 5.13467 15.8085 5.29627 16.0693 5.55736C16.3304 5.81838 16.4919 6.06694 16.6274 6.41498C16.7295 6.67748 16.8511 7.07214 16.8842 7.79925C16.92 8.58542 16.9277 8.82153 16.9277 10.8118C16.9277 12.8021 16.92 13.0382 16.8842 13.8243C16.851 14.5515 16.7295 14.9461 16.6274 15.2087C16.4923 15.5567 16.3304 15.8045 16.0693 16.0654C15.8083 16.3264 15.5605 16.488 15.2123 16.6232C14.9497 16.7257 14.5548 16.8469 13.8277 16.8801C13.0415 16.9159 12.8054 16.9236 10.8142 16.9236C8.82286 16.9236 8.58682 16.9159 7.80073 16.8801C7.07362 16.8466 6.67896 16.7251 6.41586 16.623C6.06789 16.4878 5.81926 16.3263 5.55824 16.0653C5.29723 15.8042 5.1357 15.5563 5.0002 15.2081C4.8981 14.9455 4.77647 14.5509 4.74336 13.8237C4.70764 13.0376 4.70048 12.8015 4.70048 10.8099C4.70048 8.81847 4.70764 8.58356 4.74336 7.79738C4.77662 7.07027 4.8981 6.67562 5.0002 6.41274C5.1354 6.0647 5.29723 5.81614 5.55832 5.55512C5.81933 5.29411 6.06789 5.13251 6.41593 4.99708C6.67881 4.89454 7.07362 4.77335 7.80073 4.73994C8.48868 4.70884 8.75529 4.69952 10.1452 4.69795V4.69982ZM14.795 5.93807C14.3009 5.93807 13.9001 6.33854 13.9001 6.83268C13.9001 7.32674 14.3009 7.72758 14.795 7.72758C15.2891 7.72758 15.6899 7.32674 15.6899 6.83268C15.6899 6.33861 15.2891 5.93777 14.795 5.93777V5.93807ZM10.8142 6.98369C8.69921 6.98369 6.98442 8.69848 6.98442 10.8135C6.98442 12.9285 8.69921 14.6425 10.8142 14.6425C12.9292 14.6425 14.6434 12.9285 14.6434 10.8135C14.6434 8.69855 12.9291 6.98369 10.814 6.98369H10.8142ZM10.8142 8.32761C12.187 8.32761 13.3001 9.4405 13.3001 10.8135C13.3001 12.1864 12.187 13.2994 10.8142 13.2994C9.44124 13.2994 8.32835 12.1864 8.32835 10.8135C8.32835 9.4405 9.44124 8.32761 10.8142 8.32761Z" fill="white"/>
</g>

</svg>
