<svg xmlns="http://www.w3.org/2000/svg" viewBox="0 0 334.11 73.47"><defs><style>.cls-1{fill:#016d40;}</style></defs><g id="Layer_2" data-name="Layer 2"><g id="Layer_1-2" data-name="Layer 1"><path class="cls-1" d="M83.11,49.78h2.31L88.34,56l2.92-6.19h2.29l-4.18,8V62.4H87.3V57.82Z"/><path class="cls-1" d="M104.25,62.4h-2.07V61.2a3.7,3.7,0,0,1-3,1.35,3.91,3.91,0,0,1-4.12-4.27V52.4h2.05V58c0,1.83,1,2.78,2.51,2.78s2.52-1,2.52-2.78V52.4h2.07Z"/><path class="cls-1" d="M107,49h2.07v7.81l3.63-4.37h2.87l-4.61,5,4.61,5h-2.8l-3.7-4.3v4.3H107Z"/><path class="cls-1" d="M126.12,57.28h-2.29V62.4h-2.07V49.78h4.36c3,0,4.47,1.71,4.47,3.76C130.59,55.34,129.41,57.28,126.12,57.28Zm0-1.69c1.62,0,2.34-.78,2.34-2.05s-.72-2.07-2.34-2.07h-2.29v4.12Z"/><path class="cls-1" d="M134.64,62.4h-2.07v-10h2.07v1.45a3.26,3.26,0,0,1,3-1.62v2.14h-.53c-1.52,0-2.47.64-2.47,2.77Z"/><path class="cls-1" d="M143.89,62.56a4.87,4.87,0,0,1-5-5.17,5.1,5.1,0,1,1,10.2,0A5,5,0,0,1,143.89,62.56Zm0-1.79A3.09,3.09,0,0,0,147,57.39a3,3,0,0,0-3-3.36c-1.56,0-3,1.09-3,3.36S142.32,60.77,143.89,60.77Z"/><path class="cls-1" d="M155.19,52.23a4.65,4.65,0,0,1,3.45,1.56V49h2.08V62.4h-2.08V60.89a4.16,4.16,0,0,1-3.47,1.67c-2.64,0-4.72-2.12-4.72-5.21S152.53,52.23,155.19,52.23Zm.41,1.8a3.07,3.07,0,0,0-3,3.32,3.16,3.16,0,0,0,3,3.42,3.39,3.39,0,0,0,0-6.74Z"/><path class="cls-1" d="M172.51,62.4h-2.07V61.2a3.7,3.7,0,0,1-3,1.35,3.91,3.91,0,0,1-4.12-4.27V52.4h2V58c0,1.83,1,2.78,2.51,2.78s2.52-1,2.52-2.78V52.4h2.07Z"/><path class="cls-1" d="M175.24,49h2.07v7.81l3.63-4.37h2.87l-4.61,5,4.61,5H181l-3.7-4.3v4.3h-2.07Z"/><path class="cls-1" d="M185.63,54.08h-1.18V52.4h1.18V49.91h2.09V52.4h2.43v1.68h-2.43v5.54c0,.75.29,1.06,1.16,1.06h1.27V62.4h-1.63c-1.78,0-2.89-.74-2.89-2.78Z"/><path class="cls-1" d="M191.79,49.74a1.32,1.32,0,1,1,1.32,1.33A1.31,1.31,0,0,1,191.79,49.74Zm.27,2.66h2.07v10h-2.07Z"/><path class="cls-1" d="M197.11,54.08h-1.18V52.4h1.18v-.71c0-2.31,1.18-3.31,3.8-3.31v1.73c-1.27,0-1.71.43-1.71,1.58v.71h1.85v1.68H199.2V62.4h-2.09Z"/><path class="cls-1" d="M212.66,62.4h-5V49.78h4.81c2.67,0,4.09,1.47,4.09,3.25a3,3,0,0,1-2.15,2.89A3.13,3.13,0,0,1,216.8,59C216.8,60.93,215.24,62.4,212.66,62.4Zm-.42-10.93h-2.56v3.61h2.56c1.34,0,2.16-.63,2.16-1.79S213.58,51.47,212.24,51.47Zm.16,5.3h-2.72v3.94h2.8c1.39,0,2.25-.71,2.25-1.92A2.05,2.05,0,0,0,212.4,56.77Z"/><path class="cls-1" d="M223.09,52.23a4.22,4.22,0,0,1,3.46,1.62V52.4h2.09v10h-2.09V60.91a4.27,4.27,0,0,1-3.5,1.65c-2.6,0-4.69-2.12-4.69-5.21S220.45,52.23,223.09,52.23Zm.43,1.8a3.07,3.07,0,0,0-3,3.32,3.16,3.16,0,0,0,3,3.42,3.39,3.39,0,0,0,0-6.74Z"/><path class="cls-1" d="M233.44,62.4h-2.07v-10h2.07v1.45a3.26,3.26,0,0,1,3-1.62v2.14h-.53c-1.53,0-2.47.64-2.47,2.77Z"/><path class="cls-1" d="M242.65,62.56a4.85,4.85,0,0,1-5-5.17,4.79,4.79,0,0,1,5-5.16,4.67,4.67,0,0,1,4.87,4.92,5.84,5.84,0,0,1-.08,1H239.8a2.75,2.75,0,0,0,2.85,2.65,2.42,2.42,0,0,0,2.36-1.4h2.23A4.56,4.56,0,0,1,242.65,62.56Zm-2.83-6.06h5.54a2.6,2.6,0,0,0-2.8-2.52A2.71,2.71,0,0,0,239.82,56.5Z"/><path class="cls-1" d="M256.65,56.81c0-1.84-1-2.78-2.5-2.78s-2.53.94-2.53,2.78V62.4h-2.07v-10h2.07v1.14a3.86,3.86,0,0,1,3-1.31,3.9,3.9,0,0,1,4.11,4.27v5.9h-2.06Z"/><path class="cls-1" d="M265.37,52.23a4.23,4.23,0,0,1,3.47,1.62V52.4h2.09V62.56a4.53,4.53,0,0,1-4.88,4.78c-2.67,0-4.65-1.33-4.91-3.54h2.05a2.8,2.8,0,0,0,2.86,1.74,2.66,2.66,0,0,0,2.79-3V60.89a4.26,4.26,0,0,1-3.47,1.67c-2.63,0-4.72-2.12-4.72-5.21S262.74,52.23,265.37,52.23Zm.44,1.8a3.07,3.07,0,0,0-3,3.32,3.16,3.16,0,0,0,3,3.42,3.39,3.39,0,0,0,0-6.74Z"/><path class="cls-1" d="M282.74,49.78c3,0,4.47,1.73,4.47,3.78a3.58,3.58,0,0,1-2.93,3.61l3.13,5.23h-2.47l-2.91-5h-1.58v5h-2.07V49.78Zm0,1.69h-2.29V55.7h2.29c1.62,0,2.34-.89,2.34-2.14S284.36,51.47,282.74,51.47Z"/><path class="cls-1" d="M294.2,62.56a4.87,4.87,0,0,1-5-5.17,5.1,5.1,0,1,1,10.2,0A5,5,0,0,1,294.2,62.56Zm0-1.79a3.09,3.09,0,0,0,3.07-3.38,3,3,0,0,0-3-3.36c-1.57,0-3,1.09-3,3.36S292.64,60.77,294.2,60.77Z"/><path class="cls-1" d="M301.45,49h2.07V62.4h-2.07Z"/><path class="cls-1" d="M320.43,56.81c0-1.84-1-2.78-2.51-2.78s-2.52.94-2.52,2.78V62.4h-2V56.81c0-1.84-1-2.78-2.51-2.78s-2.52.94-2.52,2.78V62.4h-2.07v-10h2.07v1.14a3.8,3.8,0,0,1,3-1.31,3.85,3.85,0,0,1,3.59,2,4.1,4.1,0,0,1,7.61,2.29v5.9h-2.05Z"/><path class="cls-1" d="M324.85,49.74a1.32,1.32,0,1,1,1.32,1.33A1.31,1.31,0,0,1,324.85,49.74Zm.27,2.66h2.07v10h-2.07Z"/><path class="cls-1" d="M330.17,54.08H329V52.4h1.18v-.71c0-2.31,1.18-3.31,3.79-3.31v1.73c-1.27,0-1.7.43-1.7,1.58v.71h1.85v1.68h-1.85V62.4h-2.09Z"/><path class="cls-1" d="M98.49,6.6c7.94,0,11.91,4.59,11.91,10.12a9.54,9.54,0,0,1-7.51,9.51l7.89,13.38h-7.66L95.84,26.75H92.72V39.61H86.1V6.6Zm-.24,5.49H92.72v9.69h5.53c3.69,0,5.35-1.94,5.35-4.92S101.94,12.09,98.25,12.09Z"/><path class="cls-1" d="M131.73,39.94A16.59,16.59,0,0,1,114.81,23a16.91,16.91,0,0,1,33.81,0A16.53,16.53,0,0,1,131.73,39.94Zm0-5.91c6,0,10.08-4.3,10.08-11s-4.12-10.92-10.08-10.92S121.61,16.3,121.61,23,125.73,34,131.73,34Z"/><path class="cls-1" d="M160.16,6.6V34.36H171v5.25H153.54V6.6Z"/><path class="cls-1" d="M175.24,6.6h7.52l10.5,24.54L203.76,6.6h7.47v33h-6.62V18.14l-8.84,21.47h-5l-8.89-21.47V39.61h-6.62Z"/><path class="cls-1" d="M217.76,6.6h6.62v33h-6.62Z"/><path class="cls-1" d="M230.91,6.6h20.38V12H237.53v8.46h10.54v5.25H237.53v14h-6.62Z"/><path class="cls-1" d="M36.73,0h0A36.74,36.74,0,0,0,0,36.73H0A36.74,36.74,0,0,0,36.73,73.47h0A36.74,36.74,0,0,0,73.47,36.73h0A36.74,36.74,0,0,0,36.73,0Zm21.1,57.83H43.77a7,7,0,0,1-7-7V36.73H50.8a7,7,0,0,1,7,7Zm0-35.16a7,7,0,0,1-7,7H29.7V50.8a7,7,0,0,1-7,7h0a7,7,0,0,1-7-7V22.67h0a7,7,0,0,1,7-7H50.8a7,7,0,0,1,7,7Z"/></g></g></svg>