<svg xmlns="http://www.w3.org/2000/svg" viewBox="0 0 137.11 137.11"><defs><style>.cls-1{fill:#fff;opacity:0.5;}</style></defs><g id="Layer_2" data-name="Layer 2"><g id="Layer_1-2" data-name="Layer 1"><path class="cls-1" d="M68.55,0h0A68.55,68.55,0,0,0,0,68.55H0a68.56,68.56,0,0,0,68.55,68.56h0a68.57,68.57,0,0,0,68.56-68.56h0A68.56,68.56,0,0,0,68.55,0Zm39.36,107.91H81.67A13.12,13.12,0,0,1,68.55,94.79V68.55H94.79a13.12,13.12,0,0,1,13.12,13.12Zm0-65.6A13.11,13.11,0,0,1,94.79,55.43H55.43V94.79a13.11,13.11,0,0,1-13.12,13.12h0A13.12,13.12,0,0,1,29.19,94.79V42.31h0A13.13,13.13,0,0,1,42.31,29.19H94.79a13.12,13.12,0,0,1,13.12,13.12Z"/></g></g></svg>