<svg width="23" height="22" viewBox="0 0 23 22" fill="none" xmlns="http://www.w3.org/2000/svg">
<mask id="mask0_86_1414" style="mask-type:alpha" maskUnits="userSpaceOnUse" x="0" y="0" width="23" height="22">
<circle cx="11.613" cy="11.0856" r="10.8134" fill="#D9D9D9"/>
</mask>
<g mask="url(#mask0_86_1414)">
<path d="M16.5498 1.69815H6.61039C4.1886 1.69815 2.22534 3.66141 2.22534 6.0832V16.0227C2.22534 18.4445 4.1886 20.4077 6.61039 20.4077H16.5498C18.9716 20.4077 20.9349 18.4445 20.9349 16.0227V6.0832C20.9349 3.66141 18.9716 1.69815 16.5498 1.69815Z" fill="white"/>
<path d="M19.1124 -3.12541H4.04795C0.377414 -3.12541 -2.59814 -0.149853 -2.59814 3.52068V18.5852C-2.59814 22.2557 0.377414 25.2313 4.04795 25.2313H19.1124C22.783 25.2313 25.7585 22.2557 25.7585 18.5852V3.52068C25.7585 -0.149853 22.783 -3.12541 19.1124 -3.12541Z" fill="#1D9BF0"/>
<path d="M17.4641 9.03224C17.4722 9.14822 17.4722 9.26421 17.4722 9.38129C17.4722 12.9476 14.7572 17.0606 9.79284 17.0606V17.0584C8.32627 17.0605 6.89008 16.6405 5.65576 15.8485C5.86902 15.8742 6.0833 15.887 6.29817 15.8875C7.51368 15.8884 8.69422 15.4807 9.65011 14.7299C9.08692 14.7192 8.54113 14.5329 8.08906 14.1968C7.63698 13.8608 7.30122 13.3919 7.1287 12.8556C7.53306 12.9336 7.94992 12.9177 8.34716 12.8092C7.08807 12.5547 6.18219 11.4485 6.18219 10.1637V10.1294C6.55754 10.3385 6.97762 10.4544 7.40708 10.4672C6.22121 9.67465 5.85565 8.09698 6.57173 6.86346C7.24931 7.69728 8.09472 8.37923 9.05304 8.86502C10.0114 9.35081 11.0612 9.62957 12.1342 9.6832C12.0272 9.22265 12.0431 8.74208 12.1801 8.28956C12.3171 7.83703 12.5705 7.42842 12.915 7.10457C14.0021 6.0827 15.7117 6.1351 16.7336 7.22157C17.338 7.10224 17.9176 6.88067 18.4475 6.56637C18.246 7.19129 17.8244 7.72174 17.261 8.05905C17.796 7.99601 18.3185 7.85279 18.8109 7.63421C18.4487 8.17664 17.9926 8.65002 17.4641 9.03224Z" fill="white"/>
</g>
</svg>
