<svg width="100" height="100" viewBox="0 0 100 100" fill="none" xmlns="http://www.w3.org/2000/svg">
<g clip-path="url(#clip0_232_47)">
<path fill-rule="evenodd" clip-rule="evenodd" d="M0.0810769 4.09838H2.27121C4.08198 4.09838 5.5499 5.5663 5.5499 7.37707C5.5499 9.18784 4.08198 10.6558 2.27121 10.6558H0V14.7541H2.27121C4.08198 14.7541 5.5499 16.222 5.5499 18.0328C5.5499 19.8436 4.08198 21.3115 2.27121 21.3115H0V25.4098H2.27121C4.08198 25.4098 5.5499 26.8777 5.5499 28.6885C5.5499 30.4993 4.08198 31.9672 2.27121 31.9672H0V36.0656H2.27121C4.08198 36.0656 5.5499 37.5335 5.5499 39.3443C5.5499 41.1551 4.08198 42.623 2.27121 42.623H0V46.7213H2.27121C4.08198 46.7213 5.5499 48.1893 5.5499 50C5.5499 51.8108 4.08198 53.2787 2.27121 53.2787H0V57.3771H2.27121C4.08198 57.3771 5.5499 58.845 5.5499 60.6557C5.5499 62.4665 4.08198 63.9344 2.27121 63.9344H0V68.0328H2.27121C4.08198 68.0328 5.5499 69.5007 5.5499 71.3115C5.5499 73.1222 4.08198 74.5902 2.27121 74.5902H0V78.6885H2.27121C4.08198 78.6885 5.5499 80.1564 5.5499 81.9672C5.5499 83.7779 4.08198 85.2459 2.27121 85.2459H0V89.3443H2.27121C4.08198 89.3443 5.5499 90.8122 5.5499 92.623C5.5499 94.4337 4.08198 95.9017 2.27121 95.9017H0.0810843C0.50561 98.2327 2.54642 100 5 100H95C97.7614 100 100 97.7614 100 95V5C100 2.23858 97.7614 0 95 0H5C2.54641 0 0.505586 1.76731 0.0810769 4.09838Z" fill="#016D40"/>
<ellipse cx="90.7741" cy="105.457" rx="27.924" ry="13.962" transform="rotate(-60 90.7741 105.457)" fill="#7E8D2F"/>
<rect x="64.7206" y="122.659" width="55.8481" height="14.3026" transform="rotate(-60 64.7206 122.659)" fill="#7E8D2F"/>
<ellipse cx="78.9776" cy="98.6464" rx="27.924" ry="13.962" transform="rotate(-60 78.9776 98.6464)" fill="#7F9B3D"/>
<ellipse cx="77.7978" cy="97.9654" rx="18.389" ry="9.1945" transform="rotate(-60 77.7978 97.9654)" fill="#7E8D2F"/>
<ellipse cx="77.1526" cy="105.457" rx="27.924" ry="13.962" transform="rotate(-60 77.1526 105.457)" fill="#7E8D2F"/>
<rect x="51.0991" y="122.659" width="55.8481" height="14.3026" transform="rotate(-60 51.0991 122.659)" fill="#7E8D2F"/>
<ellipse cx="65.3561" cy="98.6464" rx="27.924" ry="13.962" transform="rotate(-60 65.3561 98.6464)" fill="#7F9B3D"/>
<ellipse cx="64.1763" cy="97.9654" rx="18.389" ry="9.1945" transform="rotate(-60 64.1763 97.9654)" fill="#7E8D2F"/>
<ellipse cx="62.85" cy="105.457" rx="27.924" ry="13.962" transform="rotate(-60 62.85 105.457)" fill="#7E8D2F"/>
<rect x="36.7965" y="122.659" width="55.8481" height="14.3026" transform="rotate(-60 36.7965 122.659)" fill="#7E8D2F"/>
<ellipse cx="51.0535" cy="98.6464" rx="27.924" ry="13.962" transform="rotate(-60 51.0535 98.6464)" fill="#7F9B3D"/>
<ellipse cx="49.8737" cy="97.9654" rx="18.389" ry="9.1945" transform="rotate(-60 49.8737 97.9654)" fill="#7E8D2F"/>
</g>
<defs>
<clipPath id="clip0_232_47">
<rect width="100" height="100" rx="5" fill="white"/>
</clipPath>
</defs>
</svg>
