<svg width="23" height="22" viewBox="0 0 23 22" fill="none" xmlns="http://www.w3.org/2000/svg">
<circle cx="11.403" cy="11.0856" r="10.8134" fill="#FF0000"/>
<path d="M17.9561 7.77903C17.8777 7.48919 17.7247 7.22496 17.5124 7.01265C17.3 6.80034 17.0358 6.64735 16.746 6.56894C15.6848 6.27959 11.4145 6.27959 11.4145 6.27959C11.4145 6.27959 7.14395 6.28837 6.08297 6.57772C5.79314 6.65615 5.52892 6.80914 5.31661 7.02145C5.1043 7.23375 4.95131 7.49798 4.87288 7.78781C4.55192 9.67319 4.4274 12.5459 4.88166 14.3557C4.96009 14.6456 5.11308 14.9098 5.32539 15.1221C5.5377 15.3344 5.80192 15.4874 6.09175 15.5658C7.15281 15.8552 11.4232 15.8552 11.4232 15.8552C11.4232 15.8552 15.6937 15.8552 16.7547 15.5658C17.0446 15.4874 17.3088 15.3344 17.5211 15.1221C17.7334 14.9098 17.8864 14.6456 17.9648 14.3557C18.3033 12.4678 18.4076 9.59683 17.9561 7.77911L17.9561 7.77903Z" fill="white"/>
<path d="M10.0554 13.1193L13.598 11.0674L10.0554 9.01544V13.1193Z" fill="#FF0000"/>
</svg>
